<svg version="1.2" xmlns="http://www.w3.org/2000/svg" viewBox="0 0 223 289" width="223" height="289"><style>.a{fill:#a88944}</style><path fill-rule="evenodd" d="m216.8 180.4c0 21.4-6.4 42.3-18.3 60-12 17.8-28.9 31.6-48.7 39.8-19.8 8.1-41.6 10.3-62.6 6.1-21-4.2-40.3-14.5-55.4-29.6-15.2-15.1-25.5-34.4-29.7-55.3-4.2-21-2.1-42.7 6.1-62.5 8.2-19.7 22.1-36.6 39.9-48.5 17.8-11.9 38.7-18.3 60.1-18.3 14.3 0 28.4 2.8 41.6 8.2 13.2 5.4 25.2 13.4 35.3 23.5 10.1 10 18.1 22 23.5 35.1 5.4 13.2 8.2 27.3 8.2 41.5z"/><path fill-rule="evenodd" class="a" d="m157.7 156.1c-0.1 0.3 2.9 0 2.6 0.6-0.1 0.4-0.8 0.8-2.3 1.7l0.1 1.2c1.5-0.4 3-0.5 4.6-0.3 1 0.8-0.8 2-5.2 2.4l0.1 0.9c2.5-0.1 5.7 0.8-1.1 1.6l-0.8 1.2q1.6 0.1 3.2 0.4c0.7 0.9-1.1 0.9-2.7 0.6l-0.6 0.8q1.6 0.9 3 2.1c2.1 2-2.3 0.5-5.3 0-0.7-0.1-0.7 0.9-0.3 1.2q3.3 1.6 6.4 3.7c1.5 1.3 1 2.2 2.4 3.3 1.6 1.1 3.5 1.3 5.4 2.4 1.8 1.2 3 3.4 4.9 4.6 2.8 2 6.2 3.9 9 5.6 3.7 2.1 7.9 4 11.5 5.9q3 1.6 5.9 3.6 1.6 1.4 3.4 2.6c-3-0.1-6.1 0.2-9 1 7.2 4.8 15.2 8.4 23.6 10.6l5.4 2.5-1.8-0.5 0.2 0.8-1.2-0.7v0.9q-0.9-0.6-1.8-1c-3.3-1.1-3.2-1.3-5.2-1.3-0.3 0-0.7 0.3 0 0.7 0.6 0.6 2.7 1.5 2.6 1.6q-0.1 0.2-0.2 0.4c0 0.1-0.5-0.1-0.7-0.2-2.1-1.1-6.6-3.8-7.2-4-2.3-1.2-4.3-1.6-6.1-2.6-4.2-2.3-4.7-3.1-5.3-3-2-0.1-2.5 0.4-2.8 1.4-0.4 0.9-0.4 1.8 3 3.7-2.8-0.8-4.1 0.2-5.5-1.3q-2.7-3.4-4.9-7.2c-1.7-2.3-3.6-4.2-5.1-5.9-1.5-1.3-4.8-0.7-3.5 1.6 1.3 2.2 5.7 8.1 5.2 10-3.1-4.2-7.5-13.1-10.3-15.4-2.5-1.9-5.4-3.2-8.5-4-2.5-0.7-4.7-1.5-6.3-2q-4.4-1-8.6-2.6c-3.3-1.7-6.4-3.9-9.2-6.4-0.2 2.1 1.2 4 1 6.4-0.9-0.6-1.7-3-2.5-3.5-0.1 1-0.2 2.4-0.4 3.4-0.4-1-1-1.8-1.9-2.5q-0.3 2.2-0.1 4.4c-0.8-1.2-1.7-2.3-2.8-3.1 0.2 0.9 0.3 3.5 0.6 4.5-0.7-0.4-1.3-2-2-2.4 0 0.9-0.4 2.6-0.4 3.8-0.7-1.2-0.7-2.4-1.3-2.8-0.9 0.7-1.6 2-2.5 2.8 0.2 2.6-0.1 5.2-0.8 7.7-0.7 2.2-0.7 4.6 0.1 6.7-0.6 0-2.5-1.2-3.1-1.2 0.3 1.9 0.9 3.8 1.7 5.6-1.1-0.2-2.3-1.2-3.3-1.5-0.3 1.8-0.1 3.5 0.5 5.2-0.9-0.9-1.6-2.1-2-3.3-0.9 2.6-1.7 6.3-0.4 8.8-3.2-0.1-3.2-1.4-3.9-3.2q-0.4-1.6-1.4-2.9c-0.8 2-1.3 5.1-2.1 7.1-0.9 0.7-2.2 1.3-3.1 2.1-1.1 1.2-1.7 2.7-1.8 4.3 1.7 1 3.1 2.4 4.3 4 0.7 1.3 1.3 2.7 1.5 4.2 0.5 1.8 0.7 3.7 0.4 5.5-0.4-2.3-0.8-1.9-1-2.8-0.3-1.6-0.2-3-0.4-2.9-1 0.7-3.9 0.3-4.4-1.2-0.6-2.2-1.9-4.2-3.6-5.8-0.7 1.8-1.9 4.4-4.4 4.6q-2-0.1-4 0.5c-0.9 0.3-1.7 0.9-2.4 1.6-0.6 0.7-1.1 1.6-1.3 2.6-0.1-1 0-1.9 0.4-2.8 0.4-0.9 0.9-1.7 1.7-2.3 0.9-0.7 1.5-1.9 2.2-2.5 0.7-0.6 1.5-1 2.4-1.1 2.8-0.1 4-0.8 3.9-4.6-2-0.6-5.2 0.3-5.6-1.3-0.5-2-0.4-2.9-1.6-2.8-0.9 0-1.8 0.3-2.6 0.7-0.7 0.5-1.4 1.1-1.8 1.9 0-2.7 3.2-3.8 5-3.4q1.3 0.5 2.4 1.4c1 0.9 2.2 1.6 3.5 1.9 1.3 0.3 2.7 0.3 4 0 1.7-0.6 3.3-1.7 4.3-3.2 1.1-1.5 1.7-3.3 1.7-5.1 0.4-3.9-0.1-6.2 0.4-9.6 0.2-2.2 1.3-4.8 1.5-7.6 0.1-1 0-2-0.3-2.9-1.5-2.7-5.2-4.7-6.5-3.8-3 2-5.6 3.9-3.5 6.8q1.6 1.5 3.4 2.7c0.9 0.6 1.8 1 2.3 1.8q0.4 1.1 0.5 2.3c0.3 0.8 0.5 1.7 0.4 2.6-0.1 0.8-0.5 1.6-1 2.3 0.6-3 0.3-3.7-0.8-5.1-0.3-0.3-1.2-0.5-1.7-1.1-0.6-0.6-0.6-1.8-1.1-2-3.9-2-3.4-3-4.4-3.6 0 1.4-0.6 0.9-0.1 2.9 0.3 0.7 0.4 1.2 0 1.6-0.4 0.6-0.6 1.3-0.5 2-0.4-2.2-1.5-1.5-1.5-3-0.1-2-0.2-2.6-0.7-2.9q-0.9 2-2.1 3.7-1.6 1.3-3.3 2.3-0.9 0.6-1.4 1.5-0.5 1-0.5 2c-0.7-1.6-0.1-2.7 1.6-4.3 0.6-0.5 0.2-2.1 1.3-3.3 0.5-0.6 2.4-1.6 3-2.2 0.6-1.1 1.8-1.6 2.3-2.5-0.6 0-2.1 0.3-3.3 0.5-0.7 0.1-1.4 0-2-0.3-0.6-0.2-1.1-0.7-1.5-1.3-0.3-0.6-2.8-2.1-3.9 2-0.7-4.2 2.6-4 5-3.3q1.6 0.4 3.3 0.5c1 0.3 2 0.3 3 0.1 2.5-0.9 4.1-1.3 5.1-3.5-0.9-0.1-1.7-0.3-2.5-0.8-0.7-0.4-1.4-1-1.9-1.7-0.7-1.2-1.7-2.2-2.8-3q-1.1-1.6-2.4-3c-1.4-1.6-2.4-2.4-3-3 0.3-1.9 1-3.7 1.9-5.4-1.2 0.2-2.5 0.5-3.7 0.6 0.6-0.9 1.9-1.5 2.5-2.7q-2.3-0.3-4.6-0.2c1.7-3.3 6.9 0.3 9.2-0.8 1.9-0.9 2-2.5 2.3-4.2-5.8 1-7.8-2.1-10.8-1.9-0.2 1.2-0.9 2.4-1.9 3.2-1.2 1.1-3.3 1.5-4.2 2.8q-0.8 1.3-1.3 2.7c0.3-2 1.2-4 2.4-5.6 0 0 1.7-4.4-0.4-2.4-2.1 3.2-3.2 7-3.1 10.9-0.9 2.7-1.1 5.1 0.9 6.5-1.2-0.1-2.4-0.4-3.4-1q-1.3-0.7-2.2-1.8-0.9-1.1-1.2-2.5c-0.7-2.1-1.1-4.2-1-6.4 0 0-2.9-0.2-2.2-5.3 0.7-4.3 2.4-8.3 5.2-11.7q1.7-2 3.9-3.7c4.8-3.7 10.5-5.6 15.2-8.7 1.5-0.9 2.8-2.2 3.7-3.7-0.3-5-1.6-9.9-3.6-14.5-3.3-6.5-7.3-12.6-12-18.1q-4.2-4.7-7.5-10.1c-1.9-3.1-1.5-2.4-1.5-4.2q0-1.2 0.1-2.4 2.2 2.4 4.8 4.3 0.9-0.2 1.9-0.3c0 0-0.9-1.1-1.8-2.3q-1.7-1.7-2.9-3.7c-1.6-3-2.4-6.3-2.4-9.7-0.1-4.5 1.2-9.5 1.4-13.5 0.2-4.8 0.3-8.4 0.3-8.4 0.3-1.9 1-1.1 1.7-0.1 0.6 1.3 1.1 2.7 1.6 4 1.1 2.4 2.2 2.7 2.5-0.2 0.8-6-0.8-11-0.9-16.2-0.2-2.5 0.4-5.1 1.8-7.2 0.7-5.4 1.9-10.6 3.6-15.8q3.5-8.3 6.2-16.9c3.1 1 3.5 7.1 1.2 15.7 2.4-5.1 4.3-5.2 5.5-5.8 2.5 0.1 1.6 5.7 0.5 11.1-1.1 4-2.7 7.7-5 11.2l0.6 0.4c2.1-3 4.9-6.8 5.8-6.6 2 0 3.6 1.3 3.4 2.8-1 5.7-2.9 11.2-5.4 16.3l0.5 0.2c2.6-4.3 5.4-9.2 6.5-8.6q0.6 0 1.1 0.2 0.6 0.3 1 0.8 0.3 0.5 0.4 1.1 0.1 0.6-0.1 1.1c-1.4 4.5-3.2 8.8-5.4 12.8l0.6 0.4q2.1-2.8 4.5-5.3c0.4-0.3 0.9-0.5 1.4-0.5 1.8-0.3 0 2.8-2 6.4-1.2 2.1-3.9 5.5-4.9 7l0.5 0.7c2.6-1.8 7.2-6.5 7.6-6.2q0.8 0.4 1.3 1.2 0.5 0.7 0.7 1.6c-0.2 1.1-0.7 2.2-1.3 3-1.4 1.9-4 3.9-6.2 6.5l0.7 0.9c3.2-3.6 7.4-6.8 8.4-6.1 2.4 1.5 1.4 3.8-0.2 6.1q-1.6 2.5-3.7 4.7c-0.1 0.1 0.3 0.5 0.7 0.6 1-0.5 1.9-1.4 3.6-2.3 0.5-0.2 1.3 0.2 1.7 0.8 0.6 1-0.2 1.6-1 2.9 0 0.1 0.5 1.1 0.7 0.9 0.8-0.6 1.7-1.4 2-1.1 0.8 0.5 1.1 1 0.9 1.8q-0.6 1.3-1.1 2.7c0.3 0.3 0.7 0.7 0.8 0.3 0.4-0.7 1.2-1.6 1.8-1.6 0.3 0 0.6 0.4 0.8 0.7 0.4 0.4-0.5 2.1-1.3 3.3-0.2 0.5-0.5 0.9-0.7 1.2-0.1 0.1 0.5 0.6 0.5 0.6 0.7-0.6 1.3-1.6 1.8-1.9 0.3-0.1 0.5 0.8 0.5 1.1-0.3 0.6-1.3 2.2-1.9 3.6-0.6 1.6 2.9-1.3 2.2-0.7q-2.7 3.4-4.9 7.1c-1-5.2-4.5-3.9-6.5 2.2-1.9 5.6-3.2 14.2-4.9 22.1q-2.2 8.7-5.7 16.9c0.6 0 1 0.1 1.6 0.1q3.1-7.2 4.9-14.8c1.8-7.7 4-27.6 8.5-28.3 1.8-0.6-0.1 7.7 1.9 4.1q3-5 6.8-9.3c3-2.7 6.3-5 10-6.8q4.2-2.4 8.8-4.2 4.5-2.3 8.6-5.3c1.3-0.8 1.8-0.7 0.8 1.6-1.4 3-4.5 7.8-0.3 6.8 7.6-4.5 10.9-9.2 17.5-13 3.6-2.1 6.9-2.3 11.1-4q5.4-2.8 11.1-4.7c8.9-2.4 16.9-5 25.8-7.4 2.6-1 2.6 2.4 0.4 4.8-3.3 3-8.4 4.3-11.7 5.6-0.9 0.3-0.1 1.3 0 1.4 0.7-0.1 7.7-2.2 9.9-2.5 1.9-0.2 1.5 2 0.1 3.9-2.5 3-5.9 5.2-9.7 6.3q-5.7 1.7-11.5 2.6c-1.3 0.3-3.9 0.7-5.7 0.9-0.5 0.2 0 1-0.1 1q7.6-0.7 15.3-0.6c1.5 0 1.4 0.8 0.9 2.4-0.7 1.5-1.8 2.7-3.1 3.7-1.4 1-2.9 1.7-4.5 2-6.4 1.5-14.3 2.2-17.1 3.2-0.4 0.3-0.2 1.5 0.2 1.5 3.2-0.2 12.9-1.2 13.7-1 0.7 0.2 1.4 0.6 1.8 1.2 0.5 0.6 0.7 1.3 0.7 2.1-0.3 0.9-1.5 1.4-3.2 2.2q-3.9 1.2-7.8 1.5c-4.5 0.5-9.7 0.8-12 1-1.3 0.2-1 1.7 0.2 1.7 4.2 0.3 11.1-0.8 13.9-0.4 1.4 0.1 2.4 0.8 2 1.3-1 0.9-2.2 1.6-3.5 1.9q-4.1 0.7-8.3 0.7c-4.5 0.3-8.4 0-11.2 0-0.6 0.1-0.6 1.3-0.1 1.5 5.1 0.8 13.2 0.9 15.1 1.7 0.4 0.6 0.8 4.3-2.3 4.6q-7.8-0.2-15.6-1.3c-1.1 0.2-1.4 1.6-0.5 1.7 5 1.1 15.4 1.5 15.3 2.6-0.2 5.1-9 4.3-14.8 3.7-1.7-0.1-1.7 1.3-0.2 1.5q3.5 0.4 6.9 1.4c1 0.6 0.6 2.3-0.6 2.9q-2.1 0.8-4.4 0.8c-1.7 0.2-1.5 1.5 0.4 1.4 4-0.3 4.1 0.2 3.9 1.1-0.2 0.7-1.6 1.1-2.9 1.1-1.2 0.2-0.9 0.8-0.2 1.1 2.2 0.8 2.3 2.2 0.8 2.5q-1.7 0.3-3.4 0.4c-1.7 0.1-1.1 0.8 0.2 1.2 2.2 0.4 5.2 1.6-2.1 2.3-1.2 0.1-0.9 0.3-0.5 0.5q3.1 0.7 6 2c2.4 1.8-4.4 1.6-6 1.8 1.1 1.2 6.3 3 6.2 3.9q-4.5 0.1-8.9-0.3c0.9 1.1 4 2.4 5.1 3.5 1.5 1.5 0.2 1.6-1 1.5q-3.7-0.8-7-2.4c2.2 3 8.1 8 6.5 8.4-1.9-1.4-4-2.6-6.2-3.4l-0.6 0.8c2.4 1.7 5.8 4.3 4.4 4.4-2.2 0-5.9-0.4-8.1-0.6-2.4 0.4 3.2 1.3 7.3 1.9 2.1 0.3 3.9 0.4 3.9 0.8 1 1.3-5.4 1.9-5.9 2.6l-0.1 1.1zm31.4-83q0 0 0 0 0 0 0 0zm-109.4 84.9c-2.8 2.4-2 4.4-1.7 4.8l0.5 0.4c0 0 1.2 1.2-0.5 2.5-1.6 1.2 1.3-0.5 2.5-2l0.8 1.5q0.6-1.1 0.6-2.4c0-1.2-0.6-1.2-0.2-4 0.4-2 1.4-3.9 2.7-5.4q-2.2 2.4-4.7 4.6zm4.7-4.6q0.3-0.3 0.5-0.5-0.2 0.2-0.5 0.5zm-8.7 16.1q-0.2 0.5 0 0.9 0.1 0.5 0.5 0.8c0 0 0-1.2 0.7-1.7 0.8-0.4-1.2-0.7-1.2 0z"/></svg>